<!--?xml version="1.0" standalone="no"?-->
              <svg id="sw-js-blob-svg" viewBox="0 0 100 100" xmlns="http://www.w3.org/2000/svg" version="1.1">
                    <defs> 
                        <linearGradient id="sw-gradient" x1="0" x2="1" y1="1" y2="0">
                            <stop id="stop1" stop-color="rgba(62, 111, 244, 1)" offset="0%"></stop>
                            <stop id="stop2" stop-color="rgba(62, 111, 244, 1)" offset="100%"></stop>
                        </linearGradient>
                    </defs>
                <path fill="url(#sw-gradient)" d="M23.5,-27.2C30.7,-22,36.8,-14.8,37.2,-7.3C37.5,0.1,32.1,7.8,27.3,15.4C22.4,23,18.2,30.6,11,35.3C3.9,40,-6,42,-14.9,39.4C-23.8,36.8,-31.5,29.8,-36.8,21.1C-42,12.4,-44.7,2,-43.3,-7.9C-41.8,-17.8,-36.3,-27.2,-28.4,-32.2C-20.5,-37.3,-10.2,-37.9,-1,-36.7C8.2,-35.4,16.3,-32.3,23.5,-27.2Z" width="100%" height="100%" transform="translate(50 50)" stroke-width="0" style="transition: all 0.3s ease 0s;"></path>
              </svg>