<!--?xml version="1.0" standalone="no"?-->
              <svg id="sw-js-blob-svg" viewBox="0 0 100 100" xmlns="http://www.w3.org/2000/svg" version="1.1">
                    <defs> 
                        <linearGradient id="sw-gradient" x1="0" x2="1" y1="1" y2="0">
                            <stop id="stop1" stop-color="rgba(62, 111, 244, 1)" offset="0%"></stop>
                            <stop id="stop2" stop-color="rgba(62, 111, 244, 1)" offset="100%"></stop>
                        </linearGradient>
                    </defs>
                <path fill="url(#sw-gradient)" d="M20.8,-32.7C26.5,-28.6,30.4,-22.1,34.6,-15.1C38.7,-8.2,43.2,-0.6,43,6.7C42.7,14.1,37.8,21.3,31.6,26.1C25.4,31,18,33.5,10.3,36.5C2.5,39.5,-5.6,43,-12.4,41.3C-19.2,39.7,-24.7,33,-30,26.3C-35.3,19.7,-40.3,13.1,-42.8,5.3C-45.3,-2.5,-45.3,-11.6,-42.1,-19.5C-39,-27.5,-32.7,-34.2,-25.1,-37.5C-17.6,-40.7,-8.8,-40.4,-0.6,-39.5C7.5,-38.5,15,-36.8,20.8,-32.7Z" width="100%" height="100%" transform="translate(50 50)" stroke-width="0" style="transition: all 0.3s ease 0s;" stroke="url(#sw-gradient)"></path>
              </svg>