<!--?xml version="1.0" standalone="no"?-->
              <svg id="sw-js-blob-svg" viewBox="0 0 100 100" xmlns="http://www.w3.org/2000/svg" version="1.1">
                    <defs> 
                        <linearGradient id="sw-gradient" x1="0" x2="1" y1="1" y2="0">
                            <stop id="stop1" stop-color="rgba(62, 111, 244, 1)" offset="0%"></stop>
                            <stop id="stop2" stop-color="rgba(62, 111, 244, 1)" offset="100%"></stop>
                        </linearGradient>
                    </defs>
                <path fill="url(#sw-gradient)" d="M26.5,-35.1C33.6,-31.4,38,-22.6,38.4,-14.1C38.9,-5.7,35.4,2.3,31.8,9.4C28.2,16.4,24.4,22.4,19.1,26.9C13.8,31.4,6.9,34.3,-0.2,34.5C-7.3,34.8,-14.5,32.4,-20.6,28.2C-26.7,23.9,-31.7,17.9,-35.1,10.6C-38.5,3.4,-40.4,-5.2,-38.8,-13.4C-37.2,-21.6,-32.2,-29.4,-25.1,-33.2C-18.1,-37,-9,-36.7,0.3,-37.2C9.7,-37.7,19.5,-38.9,26.5,-35.1Z" width="100%" height="100%" transform="translate(50 50)" stroke-width="0" style="transition: all 0.3s ease 0s;" stroke="url(#sw-gradient)"></path>
              </svg>