<!--?xml version="1.0" standalone="no"?-->
              <svg id="sw-js-blob-svg" viewBox="0 0 100 100" xmlns="http://www.w3.org/2000/svg" version="1.1">
                    <defs> 
                        <linearGradient id="sw-gradient" x1="0" x2="1" y1="1" y2="0">
                            <stop id="stop1" stop-color="rgba(62, 111, 244, 1)" offset="0%"></stop>
                            <stop id="stop2" stop-color="rgba(62, 111, 244, 1)" offset="100%"></stop>
                        </linearGradient>
                    </defs>
                <path fill="url(#sw-gradient)" d="M21.6,-31.7C27.6,-25.4,31.9,-18.6,34.8,-11C37.8,-3.4,39.4,5,38.2,13.6C37.1,22.3,33.1,31.2,26.3,35.7C19.5,40.2,9.7,40.2,0.8,39.1C-8.1,38,-16.2,35.7,-23.3,31.3C-30.4,26.9,-36.5,20.4,-39.2,12.6C-41.9,4.8,-41.2,-4.2,-38.4,-12.4C-35.6,-20.6,-30.8,-28.1,-24,-34.2C-17.3,-40.3,-8.6,-44.9,-0.4,-44.3C7.8,-43.8,15.6,-38,21.6,-31.7Z" width="100%" height="100%" transform="translate(50 50)" stroke-width="0" style="transition: all 0.3s ease 0s;" stroke="url(#sw-gradient)"></path>
              </svg>