<!--?xml version="1.0" standalone="no"?-->
              <svg id="sw-js-blob-svg" viewBox="0 0 100 100" xmlns="http://www.w3.org/2000/svg" version="1.1">
                    <defs> 
                        <linearGradient id="sw-gradient" x1="0" x2="1" y1="1" y2="0">
                            <stop id="stop1" stop-color="rgba(62, 111, 244, 1)" offset="0%"></stop>
                            <stop id="stop2" stop-color="rgba(62, 111, 244, 1)" offset="100%"></stop>
                        </linearGradient>
                    </defs>
                <path fill="url(#sw-gradient)" d="M22.9,-25.9C30.6,-20.7,38.7,-14.5,41.1,-6.4C43.5,1.7,40.4,11.6,35.1,19.8C29.8,28,22.3,34.5,13.4,38.5C4.4,42.5,-6.1,44,-14.3,40.5C-22.5,37,-28.5,28.4,-31.3,19.9C-34.1,11.3,-33.7,2.7,-31.2,-4.5C-28.7,-11.7,-24.2,-17.5,-18.6,-23.1C-13.1,-28.7,-6.5,-34,0.5,-34.6C7.5,-35.2,15.1,-31.1,22.9,-25.9Z" width="100%" height="100%" transform="translate(50 50)" stroke-width="0" style="transition: all 0.3s ease 0s;" stroke="url(#sw-gradient)"></path>
              </svg>